#!OML:ASF G:\JayActor3\Patient Classification 1\Patient 1\Session 6\male.ASF
:FULLY-SPECIFIED
:DEGREES
459
root 37.4687 15.3055 -19.1889 13.406 -62.3784 4.29323
lowerback 38.8159 -0.58888 -0.857443
upperback 11.9696 -2.23397 -2.07085
thorax -5.70473 -1.39727 -0.871018
lowerneck 14.3961 1.27222 1.55632
upperneck -25.1407 1.92095 -0.453604
head -10.3973 0.691168 -0.658579
rclavicle 8.34896e-015 4.4329e-014
rhumerus -32.4762 3.97982 -87.4798
rradius 64.6202
rwrist -6.01478
rhand -21.3833 -7.04665
rfingers 7.12502
rthumb 5.00426 -36.9676
lclavicle 8.34896e-015 4.4329e-014
lhumerus -27.9547 -4.05077 81.811
lradius 51.2502
lwrist 29.0458
lhand -20.4577 6.23991
lfingers 7.12502
lthumb 5.89796 36.1378
rfemur -77.7816 -0.217132 21.2869
rtibia 79.9688
rfoot -14.5206 -10.4577
rtoes -9.178
lfemur -46.8947 5.91248 -31.4631
ltibia 44.3166
lfoot -19.341 -2.48229
ltoes -0.0498544
460
root 37.3433 15.3069 -19.1046 13.1859 -62.4344 4.7207
lowerback 38.626 -0.623344 -0.951541
upperback 11.7127 -2.28598 -2.09122
thorax -5.92597 -1.41151 -0.822239
lowerneck 13.1792 1.29696 1.54144
upperneck -23.8893 1.90861 -0.519069
head -9.71182 0.716075 -0.6576
rclavicle 3.57812e-015 6.16232e-015
rhumerus -32.651 4.12344 -87.6096
rradius 63.7103
rwrist -5.99152
rhand -21.2043 -7.07948
rfingers 7.12502
rthumb 5.17711 -36.9962
lclavicle 3.57812e-015 6.16232e-015
lhumerus -28.1736 -4.14647 82.0118
lradius 50.7541
lwrist 28.9453
lhand -20.3942 6.29976
lfingers 7.12502
lthumb 5.95929 36.196
rfemur -77.2105 0.0290202 20.8801
rtibia 76.6336
rfoot -15.4918 -10.8158
rtoes -9.47703
lfemur -46.5249 6.1785 -31.7856
ltibia 44.4689
lfoot -19.8279 -2.74643
ltoes 0.0944919
461
root 37.2155 15.3125 -19.0195 12.9247 -62.4821 5.21429
lowerback 38.3802 -0.661582 -1.05943
upperback 11.4485 -2.34626 -2.12345
thorax -6.13669 -1.42866 -0.776553
lowerneck 11.7549 1.31604 1.55166
upperneck -22.3519 1.89607 -0.575219
head -8.90558 0.739976 -0.653371
rclavicle -3.02153e-014 3.18055e-015
rhumerus -32.8206 4.22893 -87.7469
rradius 62.7397
rwrist -5.97607
rhand -21.0451 -7.07723
rfingers 7.12502
rthumb 5.33083 -36.9902
lclavicle -3.02153e-014 3.18055e-015
lhumerus -28.406 -4.24766 82.2075
lradius 50.2363
lwrist 28.8317
lhand -20.3516 6.33445
lfingers 7.12502
lthumb 6.00036 36.2295
rfemur -76.4935 0.279464 20.4029
rtibia 73.0538
rfoot -16.3902 -11.1858
rtoes -9.86818
lfemur -46.0932 6.43185 -32.1336
ltibia 44.5002
lfoot -20.2447 -3.00438
ltoes 0.258129
462
root 37.0854 15.3217 -18.9337 12.6473 -62.5218 5.74797
lowerback 38.0793 -0.702369 -1.16797
upperback 11.1796 -2.40856 -2.16455
thorax -6.33404 -1.44587 -0.740056
lowerneck 10.1137 1.32877 1.59145
upperneck -20.5144 1.88043 -0.627961
head -7.98086 0.761459 -0.648474
rclavicle 2.90226e-014 -4.17448e-015
rhumerus -32.9844 4.2862 -87.8872
rradius 61.7154
rwrist -5.96258
rhand -20.9024 -7.05201
rfingers 7.12502
rthumb 5.46857 -36.9614
lclavicle 2.90226e-014 -4.17448e-015
lhumerus -28.6382 -4.35056 82.4038
lradius 49.6923
lwrist 28.6907
lhand -20.3331 6.36174
lfingers 7.12502
lthumb 6.01826 36.2563
rfemur -75.65 0.531996 19.8711
rtibia 69.2585
rfoot -17.2315 -11.5184
rtoes -10.1998
lfemur -45.6096 6.6658 -32.4932
ltibia 44.4165
lfoot -20.5905 -3.24061
ltoes 0.430642
463
root 36.9535 15.3348 -18.847 12.3722 -62.5451 6.29346
lowerback 37.7311 -0.745814 -1.26101
upperback 10.9108 -2.46718 -2.20843
thorax -6.51469 -1.46079 -0.716883
lowerneck 8.26499 1.33452 1.66578
upperneck -18.3844 1.85866 -0.683312
head -6.94996 0.77866 -0.645976
rclavicle -8.34896e-014 3.89618e-014
rhumerus -33.1332 4.28842 -88.0211
rradius 60.6357
rwrist -5.94677
rhand -20.8094 -7.01424
rfingers 7.12502
rthumb 5.55842 -36.9213
lclavicle -8.34896e-014 3.89618e-014
lhumerus -28.8734 -4.48078 82.6075
lradius 49.1527
lwrist 28.5416
lhand -20.3489 6.39351
lfingers 7.12502
lthumb 6.00296 36.2885
rfemur -74.6884 0.786437 19.2968
rtibia 65.2845
rfoot -18.0349 -11.7638
rtoes -10.3707
lfemur -45.0703 6.86555 -32.8443
ltibia 44.224
lfoot -20.8587 -3.44536
ltoes 0.64854
464
root 36.8198 15.3514 -18.7597 12.1319 -62.5467 6.81303
lowerback 37.3384 -0.7966 -1.33023
upperback 10.6442 -2.52416 -2.2459
thorax -6.67686 -1.47479 -0.700976
lowerneck 6.24661 1.34468 1.75352
upperneck -16.0021 1.84247 -0.738142
head -5.83788 0.797526 -0.643308
rclavicle 1.63003e-014 -3.22031e-014
rhumerus -33.2716 4.25883 -88.1426
rradius 59.524
rwrist -5.91925
rhand -20.7647 -6.98746
rfingers 7.12502
rthumb 5.60153 -36.8934
lclavicle 1.63003e-014 -3.22031e-014
lhumerus -29.1127 -4.61595 82.8221
lradius 48.6201
lwrist 28.3899
lhand -20.4009 6.4021
lfingers 7.12502
lthumb 5.9528 36.2985
rfemur -73.6251 1.049 18.6951
rtibia 61.1781
rfoot -18.7704 -11.9068
rtoes -10.4553
lfemur -44.4838 7.01718 -33.164
ltibia 43.9386
lfoot -21.0563 -3.60395
ltoes 0.899967
465
root 36.6845 15.3715 -18.672 11.9504 -62.5235 7.27951
lowerback 36.9046 -0.852392 -1.36553
upperback 10.3802 -2.57279 -2.27111
thorax -6.82072 -1.48498 -0.693989
lowerneck 4.11323 1.35668 1.85562
upperneck -13.4273 1.82742 -0.795017
head -4.674 0.814939 -0.64219
rclavicle 1.66979e-014 1.90833e-014
rhumerus -33.4102 4.19951 -88.2413
rradius 58.4066
rwrist -5.88144
rhand -20.7521 -6.99242
rfingers 7.12502
rthumb 5.61373 -36.8981
lclavicle 1.66979e-014 1.90833e-014
lhumerus -29.3619 -4.76953 83.0485
lradius 48.1112
lwrist 28.2494
lhand -20.4583 6.38658
lfingers 7.12502
lthumb 5.89738 36.2845
rfemur -72.4837 1.33309 18.068
rtibia 57.0008
rfoot -19.4827 -11.9312
rtoes -10.3376
lfemur -43.8589 7.11211 -33.4356
ltibia 43.5769
lfoot -21.1714 -3.70206
ltoes 1.22602
466
root 36.5474 15.3938 -18.5838 11.8422 -62.476 7.67183
lowerback 36.4349 -0.915491 -1.36561
upperback 10.1221 -2.61553 -2.27804
thorax -6.94366 -1.49295 -0.689433
lowerneck 1.96433 1.37793 1.94385
upperneck -10.5345 1.82808 -0.811245
head -3.73311 0.834146 -0.675164
rclavicle -1.51076e-014 -3.85642e-014
rhumerus -33.5499 4.14472 -88.3096
rradius 57.3015
rwrist -5.83761
rhand -20.7739 -7.01934
rfingers 7.12502
rthumb 5.59268 -36.9255
lclavicle -1.51076e-014 -3.85642e-014
lhumerus -29.6095 -4.91335 83.2887
lradius 47.6256
lwrist 28.1334
lhand -20.5192 6.37122
lfingers 7.12502
lthumb 5.83856 36.2708
rfemur -71.2878 1.65078 17.421
rtibia 52.8223
rfoot -20.1222 -11.8881
rtoes -10.2369
lfemur -43.2056 7.14837 -33.6485
ltibia 43.1649
lfoot -21.1975 -3.72505
ltoes 1.66502
467
root 36.4088 15.4177 -18.4957 11.7997 -62.3929 7.99505
lowerback 35.9387 -0.987957 -1.33446
upperback 9.86884 -2.6566 -2.26413
thorax -7.04933 -1.50075 -0.680911
lowerneck -0.182858 1.40445 2.01284
upperneck -7.96411 1.82732 -0.856943
head -2.44944 0.855098 -0.651394
rclavicle -7.87187e-014 2.5842e-014
rhumerus -33.7043 4.1138 -88.3455
rradius 56.2377
rwrist -5.78505
rhand -20.7861 -7.09216
rfingers 7.12502
rthumb 5.58091 -36.9987
lclavicle -7.87187e-014 2.5842e-014
lhumerus -29.863 -5.045 83.5365
lradius 47.1746
lwrist 28.0482
lhand -20.5527 6.35129
lfingers 7.12502
lthumb 5.80623 36.2517
rfemur -70.064 2.02673 16.7188
rtibia 48.7276
rfoot -20.6903 -11.8408
rtoes -10.1642
lfemur -42.5351 7.12168 -33.8047
ltibia 42.7265
lfoot -21.1407 -3.71241
ltoes 2.2767
468
root 36.2686 15.4414 -18.4084 11.8072 -62.2708 8.25646
lowerback 35.4288 -1.06955 -1.27948
upperback 9.62289 -2.69936 -2.22967
thorax -7.13906 -1.51012 -0.663547
lowerneck -2.20579 1.43279 2.05428
upperneck -5.43999 1.83134 -0.883279
head -1.27809 0.8741 -0.620495
rclavicle 6.36111e-015 -2.78299e-015
rhumerus -33.8718 4.12592 -88.3514
rradius 55.2198
rwrist -5.74603
rhand -20.7877 -7.15577
rfingers 7.12502
rthumb 5.57934 -37.0623
lclavicle 6.36111e-015 -2.78299e-015
lhumerus -30.1156 -5.14274 83.7837
lradius 46.7586
lwrist 27.982
lhand -20.5353 6.34628
lfingers 7.12502
lthumb 5.82304 36.2463
rfemur -68.8322 2.47563 15.9415
rtibia 44.8046
rfoot -21.2062 -11.8538
rtoes -10.1255
lfemur -41.8569 7.03831 -33.9087
ltibia 42.2912
lfoot -21.0281 -3.68701
ltoes 2.98126
469
root 36.1269 15.4645 -18.3217 11.8412 -62.1124 8.46414
lowerback 34.8342 -1.16246 -1.19847
upperback 9.47619 -2.7454 -2.18811
thorax -7.21437 -1.52266 -0.636829
lowerneck -4.0016 1.45811 2.07152
upperneck -3.08697 1.83609 -0.895426
head -0.256172 0.889164 -0.592095
rclavicle 1.66979e-014 -1.86858e-014
rhumerus -34.0553 4.2011 -88.3318
rradius 54.2686
rwrist -5.71336
rhand -20.7549 -7.21347
rfingers 7.12502
rthumb 5.61102 -37.1192
lclavicle 1.66979e-014 -1.86858e-014
lhumerus -30.3663 -5.19389 84.0224
lradius 46.3907
lwrist 27.9339
lhand -20.4497 6.37911
lfingers 7.12502
lthumb 5.90563 36.2768
rfemur -67.6042 2.99947 15.089
rtibia 41.1432
rfoot -21.6668 -12.0256
rtoes -10.2366
lfemur -41.1671 6.90753 -33.9651
ltibia 41.8831
lfoot -20.8951 -3.67279
ltoes 3.69087
470
root 35.9838 15.4859 -18.2356 11.8818 -61.9229 8.62737
lowerback 34.3413 -1.25791 -1.10687
upperback 9.25769 -2.79493 -2.12475
thorax -7.27488 -1.53717 -0.607433
lowerneck -5.49075 1.47297 2.07976
upperneck -1.0358 1.83271 -0.895933
head 0.617981 0.896532 -0.579142
rclavicle 1.86858e-014 -3.45885e-014
rhumerus -34.2556 4.32712 -88.2997
rradius 53.395
rwrist -5.67854
rhand -20.6441 -7.27498
rfingers 7.12502
rthumb 5.71794 -37.1778
lclavicle 1.86858e-014 -3.45885e-014
lhumerus -30.6143 -5.20707 84.2413
lradius 46.0756
lwrist 27.8992
lhand -20.2886 6.44015
lfingers 7.12502
lthumb 6.0612 36.3334
rfemur -66.3948 3.57604 14.1928
rtibia 37.8207
rfoot -22.1171 -12.3569
rtoes -10.2547
lfemur -40.4678 6.73893 -33.9791
ltibia 41.5278
lfoot -20.7788 -3.68725
ltoes 4.31886
471
root 35.8392 15.5053 -18.1502 11.9082 -61.7113 8.75572
lowerback 33.8726 -1.3505 -1.00419
upperback 9.06162 -2.84014 -2.05351
thorax -7.31701 -1.55093 -0.577795
lowerneck -6.66039 1.47357 2.09478
upperneck 0.653133 1.81498 -0.911041
head 1.35278 0.893854 -0.579498
rclavicle 1.27222e-014 -8.26944e-014
rhumerus -34.4622 4.49399 -88.2597
rradius 52.6026
rwrist -5.64528
rhand -20.4453 -7.32848
rfingers 7.12502
rthumb 5.90988 -37.2261
lclavicle 1.27222e-014 -8.26944e-014
lhumerus -30.8594 -5.20278 84.4372
lradius 45.8351
lwrist 27.8942
lhand -20.0575 6.53411
lfingers 7.12502
lthumb 6.28428 36.4209
rfemur -65.2134 4.16051 13.3232
rtibia 34.9028
rfoot -22.5883 -12.8188
rtoes -10.117
lfemur -39.7586 6.54976 -33.9579
ltibia 41.2476
lfoot -20.6977 -3.72591
ltoes 4.75296
472
root 35.6933 15.5225 -18.0651 11.9093 -61.4916 8.85
lowerback 33.4343 -1.43483 -0.895716
upperback 8.89589 -2.87689 -1.97619
thorax -7.33476 -1.56227 -0.548417
lowerneck -7.48839 1.45995 2.11739
upperneck 1.95619 1.78401 -0.949363
head 1.92357 0.881957 -0.591904
rclavicle 9.93923e-015 2.18663e-014
rhumerus -34.6611 4.69474 -88.2175
rradius 51.8925
rwrist -5.60426
rhand -20.1928 -7.35298
rfingers 7.12502
rthumb 6.15368 -37.2436
lclavicle 9.93923e-015 2.18663e-014
lhumerus -31.0873 -5.18542 84.6128
lradius 45.6627
lwrist 27.9249
lhand -19.7837 6.62418
lfingers 7.12502
lthumb 6.54858 36.5029
rfemur -64.0663 4.70327 12.5663
rtibia 32.4345
rfoot -23.0976 -13.3424
rtoes -9.75629
lfemur -39.0428 6.35885 -33.9057
ltibia 41.0667
lfoot -20.6579 -3.77466
ltoes 4.9668
473
root 35.5466 15.5377 -17.9806 11.8797 -61.2774 8.91897
lowerback 32.6973 -1.50934 -0.769237
upperback 9.18782 -2.89624 -1.8838
thorax -7.42506 -1.5756 -0.565598
lowerneck -7.97797 1.43087 2.15008
upperneck 2.88385 1.73866 -1.01476
head 2.32072 0.860622 -0.61789
rclavicle 2.00773e-014 -2.5842e-014
rhumerus -34.8406 4.91742 -88.1745
rradius 51.2595
rwrist -5.55881
rhand -19.8915 -7.3627
rfingers 7.12502
rthumb 6.44455 -37.2446
lclavicle 2.00773e-014 -2.5842e-014
lhumerus -31.2999 -5.18493 84.7684
lradius 45.5696
lwrist 28.0103
lhand -19.4831 6.70902
lfingers 7.12502
lthumb 6.8388 36.5786
rfemur -62.9577 5.15785 11.9997
rtibia 30.4394
rfoot -23.5937 -13.8651
rtoes -9.26851
lfemur -38.3423 6.18115 -33.8302
ltibia 41.0173
lfoot -20.6348 -3.81995
ltoes 4.95864
